<svg width="23" height="23" viewBox="0 0 23 23" fill="none" xmlns="http://www.w3.org/2000/svg">
  <circle cx="11.5" cy="11.5" r="11.5" fill="#FF3B00"/>
  <path
    d="M19.8519 11.3099C19.1944 9.60918 18.0529 8.13836 16.5686 7.07927C15.0843 6.02017 13.3221 5.41923 11.5 5.35071C9.67784 5.41923 7.91572 6.02017 6.43139 7.07927C4.94707 8.13836 3.80562 9.60918 3.14811 11.3099C3.10371 11.4328 3.10371 11.5673 3.14811 11.6901C3.80562 13.3908 4.94707 14.8617 6.43139 15.9208C7.91572 16.9799 9.67784 17.5808 11.5 17.6493C13.3221 17.5808 15.0843 16.9799 16.5686 15.9208C18.0529 14.8617 19.1944 13.3908 19.8519 11.6901C19.8963 11.5673 19.8963 11.4328 19.8519 11.3099ZM11.5 16.5313C8.53714 16.5313 5.40658 14.3343 4.27176 11.5C5.40658 8.66574 8.53714 6.46876 11.5 6.46876C14.4628 6.46876 17.5934 8.66574 18.7282 11.5C17.5934 14.3343 14.4628 16.5313 11.5 16.5313Z"
    fill="white"/>
  <path
    d="M11.5 8.14584C10.8366 8.14584 10.1881 8.34256 9.63651 8.71112C9.08492 9.07968 8.655 9.60353 8.40114 10.2164C8.14727 10.8293 8.08084 11.5037 8.21026 12.1544C8.33969 12.805 8.65914 13.4027 9.12823 13.8718C9.59732 14.3409 10.195 14.6603 10.8456 14.7897C11.4963 14.9191 12.1707 14.8527 12.7836 14.5989C13.3965 14.345 13.9203 13.9151 14.2889 13.3635C14.6574 12.8119 14.8541 12.1634 14.8541 11.5C14.8541 10.6104 14.5008 9.75728 13.8717 9.12826C13.2427 8.49923 12.3896 8.14584 11.5 8.14584ZM11.5 13.7361C11.0577 13.7361 10.6254 13.605 10.2577 13.3593C9.88994 13.1136 9.60333 12.7643 9.43408 12.3557C9.26484 11.9471 9.22056 11.4975 9.30684 11.0638C9.39312 10.63 9.60609 10.2316 9.91881 9.91884C10.2315 9.60611 10.63 9.39315 11.0637 9.30686C11.4975 9.22058 11.9471 9.26487 12.3557 9.43411C12.7643 9.60336 13.1135 9.88997 13.3592 10.2577C13.6049 10.6254 13.7361 11.0577 13.7361 11.5C13.7361 12.0931 13.5005 12.6618 13.0811 13.0812C12.6618 13.5005 12.093 13.7361 11.5 13.7361Z"
    fill="white"/>
</svg>
