<svg width="119" height="120" viewBox="0 0 119 120" fill="none" xmlns="http://www.w3.org/2000/svg">
<path d="M62.6455 93.9449V83.7805L81.0295 74.1252L90.9948 79.0752L62.6455 93.9449ZM62.6455 107.889V97.7429L94.7172 80.909L104.664 85.8397L62.6455 107.889ZM62.6455 79.9825V65L77.3262 72.2738L62.6455 79.9825ZM108.387 87.6912L118.218 92.566L62.6455 120V111.686L108.387 87.6912Z" fill="white"/>
<path d="M53.6491 46.1384L31.0205 12.6961L40.4253 8.03359L53.6491 46.1384ZM28.0114 14.1934L50.4149 47.2991L18.0423 19.1372L28.0114 14.1934ZM43.4351 6.53542L56.5833 0V44.397L43.4351 6.53542ZM49.6428 51.0449L1.8268 27.189L14.8058 20.7478L49.6428 51.0449ZM0 69.3946V58.478H41.1762L0 69.3946ZM0 40.6337V29.4731L47.6657 53.2537L0 40.6337ZM0 55.1639V44.0793L41.8153 55.1639H0ZM48.1545 60.0696L0 84V72.8211L48.1545 60.0696Z" fill="white"/>
</svg>
