<svg width="26" height="24" viewBox="0 0 26 24" fill="none" xmlns="http://www.w3.org/2000/svg">
<path fill-rule="evenodd" clip-rule="evenodd" d="M3.76487 6.80038C2.88972 8.3166 2.42913 10.0365 2.4294 11.7872C2.4294 14.432 3.48007 16.9685 5.35026 18.8387C7.22046 20.7089 9.75699 21.7596 12.4018 21.7596C15.0467 21.7596 17.5832 20.7089 19.4534 18.8387C21.3236 16.9685 22.3743 14.432 22.3743 11.7872C22.3743 11.5467 22.4698 11.3161 22.6398 11.1461C22.8099 10.9761 23.0404 10.8806 23.2809 10.8806C23.5213 10.8806 23.7519 10.9761 23.9219 11.1461C24.092 11.3161 24.1875 11.5467 24.1875 11.7872C24.1871 14.3815 23.3308 16.9033 21.7512 18.9613C20.1716 21.0194 17.9571 22.4987 15.4511 23.17C12.9451 23.8412 10.2876 23.6668 7.89081 22.6738C5.49402 21.6808 3.49186 19.9247 2.19482 17.6778C0.897791 15.4309 0.378374 12.8189 0.717129 10.2467C1.05588 7.6746 2.23388 5.2861 4.06842 3.45168C5.90297 1.61725 8.29154 0.43941 10.8637 0.10082C13.4359 -0.23777 16.0479 0.281813 18.2947 1.57899C18.5012 1.70007 18.6514 1.89792 18.7126 2.12936C18.7738 2.36081 18.741 2.60707 18.6213 2.81439C18.5016 3.02172 18.3047 3.17328 18.0737 3.236C17.8427 3.29873 17.5962 3.26752 17.3881 3.1492C15.872 2.27387 14.1521 1.81307 12.4015 1.81314C10.6508 1.81321 8.931 2.27414 7.41495 3.14959C5.8989 4.02504 4.64002 5.28416 3.76487 6.80038ZM25.9311 3.06863C25.8855 3.17876 25.8187 3.27883 25.7344 3.36312L13.0422 16.0553C12.9579 16.1398 12.8579 16.2067 12.7478 16.2524C12.6376 16.2981 12.5195 16.3217 12.4003 16.3217C12.2811 16.3217 12.163 16.2981 12.0528 16.2524C11.9427 16.2067 11.8426 16.1398 11.7584 16.0553L6.31892 10.6158C6.23463 10.5315 6.16776 10.4315 6.12214 10.3213C6.07653 10.2112 6.05305 10.0932 6.05305 9.97395C6.05305 9.85474 6.07653 9.7367 6.12214 9.62657C6.16776 9.51644 6.23463 9.41637 6.31892 9.33208C6.40321 9.24779 6.50327 9.18093 6.61341 9.13531C6.72354 9.08969 6.84157 9.06621 6.96078 9.06621C7.07998 9.06621 7.19802 9.08969 7.30815 9.13531C7.41828 9.18093 7.51835 9.24779 7.60264 9.33208L12.4003 14.1316L24.4506 2.07939C24.5349 1.9951 24.635 1.92824 24.7451 1.88262C24.8553 1.837 24.9733 1.81352 25.0925 1.81352C25.2117 1.81352 25.3297 1.837 25.4399 1.88262C25.55 1.92824 25.6501 1.9951 25.7344 2.07939C25.8187 2.16368 25.8855 2.26375 25.9311 2.37388C25.9768 2.48401 26.0002 2.60205 26.0002 2.72126C26.0002 2.84046 25.9768 2.9585 25.9311 3.06863Z" fill="#0094DA"/>
</svg>
