<svg
        viewBox="0 0 52 52"
        fill="none" xmlns="http://www.w3.org/2000/svg"
>
    <rect
            x="18"
            y="14"
            width="22"
            height="25"
            fill="white"
    />
    <g filter="url(#filter0_d_10_2)">
        <path d="M26 4.33334C21.7147 4.33334 17.5257 5.60407 13.9626 7.98484C10.3996 10.3656 7.6225 13.7495 5.9826 17.7085C4.3427 21.6676 3.91363 26.024 4.74964 30.227C5.58565 34.4299 7.6492 38.2905 10.6793 41.3207C13.7095 44.3508 17.5701 46.4143 21.773 47.2504C25.976 48.0864 30.3324 47.6573 34.2915 46.0174C38.2505 44.3775 41.6344 41.6004 44.0152 38.0374C46.3959 34.4743 47.6667 30.2853 47.6667 26C47.6667 23.1547 47.1062 20.3373 46.0174 17.7085C44.9285 15.0798 43.3326 12.6913 41.3206 10.6794C39.3087 8.66743 36.9202 7.07147 34.2915 5.98262C31.6627 4.89377 28.8453 4.33334 26 4.33334ZM21.6667 35.75V16.25L34.6667 26L21.6667 35.75Z"
              fill="#0094DA"/>
    </g>
</svg>
