<svg width="23" height="23" viewBox="0 0 23 23" fill="none" xmlns="http://www.w3.org/2000/svg">
  <circle cx="11.5" cy="11.5" r="11.5" fill="#0094DA"/>
  <path
    d="M11 11C10.175 11 9.46875 10.7062 8.88125 10.1187C8.29375 9.53125 8 8.825 8 8C8 7.175 8.29375 6.46875 8.88125 5.88125C9.46875 5.29375 10.175 5 11 5C11.825 5 12.5312 5.29375 13.1187 5.88125C13.7062 6.46875 14 7.175 14 8C14 8.825 13.7062 9.53125 13.1187 10.1187C12.5312 10.7062 11.825 11 11 11ZM5 17V14.9C5 14.475 5.1095 14.0845 5.3285 13.7285C5.5475 13.3725 5.838 13.1005 6.2 12.9125C6.975 12.525 7.7625 12.2345 8.5625 12.041C9.3625 11.8475 10.175 11.7505 11 11.75C11.825 11.75 12.6375 11.847 13.4375 12.041C14.2375 12.235 15.025 12.5255 15.8 12.9125C16.1625 13.1 16.4532 13.372 16.6722 13.7285C16.8912 14.085 17.0005 14.4755 17 14.9V17H5Z"
    fill="white"/>
</svg>
