<svg width="198" height="52" fill="none" xmlns="http://www.w3.org/2000/svg"><g clip-path="url(#clip0)"><path d="M21.343 41.432a.208.208 0 00-.11-.176l-8.433-4.17a.19.19 0 00-.185.01.208.208 0 00-.093.167v8.404c0 .065.037.13.093.167a.186.186 0 00.102.028.27.27 0 00.083-.019l8.432-4.234a.208.208 0 00.111-.177zM10.305 12.415a.195.195 0 01.093.167v8.246c0 .065-.037.13-.093.167a.187.187 0 01-.102.028c-.027 0-.055-.01-.083-.019l-8.413-4.095a.197.197 0 01-.112-.176.19.19 0 01.112-.177l8.413-4.16a.259.259 0 01.185.019zm-.185 12.303l-8.432 4.3a.199.199 0 00-.102.176c0 .074.047.14.111.167l8.432 4.058a.18.18 0 00.074.01c.037 0 .075-.01.102-.029a.208.208 0 00.093-.167v-8.347a.208.208 0 00-.093-.168c-.055-.027-.13-.037-.185 0zM.195 14.922c.028 0 .055-.01.083-.019l8.469-4.178a.197.197 0 00.111-.177.199.199 0 00-.102-.176L.278 6.054a.19.19 0 00-.185.01A.208.208 0 000 6.23v8.497c0 .065.037.13.093.167a.187.187 0 00.102.028zm8.617 20.336a.208.208 0 00-.111-.177l-8.423-4.04a.195.195 0 00-.278.176v8.303c0 .065.037.13.093.167a.187.187 0 00.102.028.27.27 0 00.083-.019l8.423-4.253a.204.204 0 00.11-.185zm1.308 1.847l-8.45 4.263a.199.199 0 00-.102.176c0 .074.046.14.11.177l8.451 4.14a.27.27 0 00.084.02.195.195 0 00.195-.195v-8.404a.208.208 0 00-.093-.167.208.208 0 00-.195-.01zm-9.925-9.74a.27.27 0 00.083-.019l8.45-4.308a.199.199 0 00.103-.177.208.208 0 00-.112-.176L.28 18.58a.195.195 0 00-.278.176v8.413a.203.203 0 00.092.167.187.187 0 00.102.028zM22.623 43.29l-8.422 4.225c-.065.037-.111.102-.102.176 0 .075.046.14.111.177l8.404 4.122c.019 0 .047.01.075.01.037 0 .074-.01.102-.028a.208.208 0 00.092-.167l.019-8.348a.208.208 0 00-.093-.167.217.217 0 00-.186 0z" fill="#EE4122"/><path d="M12.615 20.995a.207.207 0 01-.093-.167v-8.246c0-.065.037-.13.093-.167a.19.19 0 01.185-.01l8.395 4.16a.197.197 0 01.111.177c0 .074-.046.14-.111.176L12.8 21.013a.27.27 0 01-.083.019c-.037-.01-.074-.019-.102-.037zm.102 12.433a.27.27 0 00.083-.018l8.423-4.049a.194.194 0 00.111-.167.199.199 0 00-.102-.176l-8.422-4.3a.195.195 0 00-.278.176v8.349c0 .065.037.13.092.167.019.01.056.018.093.018zm20.815 1.765l-8.228-4.114a.195.195 0 00-.278.176v8.153c0 .065.037.13.093.167a.186.186 0 00.102.028.27.27 0 00.083-.018l8.228-4.04a.194.194 0 00.111-.167c0-.093-.046-.157-.111-.185zm-8.311-20.29a.27.27 0 00.083-.018l8.293-4.17c.065-.027.102-.102.102-.167a.199.199 0 00-.102-.176l-8.293-4.3a.19.19 0 00-.185.01.207.207 0 00-.093.167v8.469c0 .065.037.13.093.167a.31.31 0 00.102.018zM35.127.028a.19.19 0 00-.185-.01L26.686 4.04a.194.194 0 00-.111.167.2.2 0 00.102.177l8.255 4.28c.028.019.056.019.093.019s.074-.01.102-.028a.195.195 0 00.093-.167V.195a.207.207 0 00-.093-.167zM22.623 18.58l-8.431 4.104a.197.197 0 00-.111.176.2.2 0 00.102.177l8.431 4.299c.028.018.056.018.084.018a.192.192 0 00.102-.027.195.195 0 00.092-.168v-8.403a.208.208 0 00-.092-.167c-.047-.037-.112-.037-.177-.01zm12.31 6.147l-8.284 4.299a.199.199 0 00-.102.176c0 .075.046.14.111.168l8.284 4.141a.192.192 0 00.185-.009.208.208 0 00.093-.167v-8.441a.207.207 0 00-.093-.167.237.237 0 00-.195 0zM22.901 6.23a.207.207 0 00-.093-.168.19.19 0 00-.186-.009l-8.45 4.309a.199.199 0 00-.102.176c0 .074.047.14.112.177l8.45 4.178a.27.27 0 00.083.019.19.19 0 00.102-.028.195.195 0 00.093-.167V8.682l-.01-2.451zm-.279 24.811l-8.385 4.04a.194.194 0 00-.111.166c0 .075.037.14.111.177l8.386 4.15a.27.27 0 00.083.02.195.195 0 00.195-.195v-8.182a.208.208 0 00-.093-.167c-.056-.037-.12-.037-.186-.009z" fill="#0094DA"/><path d="M100.948 35.304V14.708h13.839v3.808h-9.628l-.019 4.661h6.447v3.584h-6.447l.019 4.736h9.628v3.807h-13.839zm36.157-10.298c-.047-2.953 1.029-5.488 3.209-7.596 2.18-2.107 4.768-3.138 7.764-3.073 1.957 0 3.719.455 5.315 1.356a9.886 9.886 0 013.757 3.76l-3.182 2.247c-1.475-2.312-3.441-3.463-5.89-3.463-1.911 0-3.497.64-4.749 1.931-1.262 1.291-1.883 2.916-1.883 4.866 0 1.96.63 3.566 1.883 4.838 1.252 1.272 2.838 1.904 4.749 1.904 2.449 0 4.415-1.152 5.89-3.464l3.182 2.247a9.707 9.707 0 01-3.739 3.76c-1.595.901-3.385 1.356-5.361 1.356-3.015.065-5.603-.965-7.773-3.073-2.18-2.108-3.237-4.643-3.172-7.596zm23.43 1.588V14.523h4.211V26.91c0 1.477.418 2.628 1.243 3.445.835.826 1.92 1.235 3.275 1.235 1.372 0 2.467-.409 3.283-1.235.816-.817 1.234-1.968 1.234-3.445V14.523h4.211v12.071c0 2.684-.825 4.838-2.458 6.454-1.642 1.625-3.729 2.433-6.261 2.433-2.56 0-4.647-.808-6.28-2.433-1.642-1.616-2.458-3.77-2.458-6.454zm26.649 8.71V18.516h-6.576v-3.807H198v3.807h-6.604v16.788h-4.212zm-56.842-8.078c1.141-.557 2.032-1.356 2.663-2.387.63-1.03.946-2.191.946-3.482 0-1.978-.696-3.575-2.087-4.8-1.392-1.226-3.173-1.84-5.325-1.84h-7.726v20.587h4.211V18.423h3.525c.937 0 1.688.27 2.263.808s.853 1.244.853 2.117c0 .891-.278 1.616-.825 2.154-.547.539-1.317.808-2.291.808h-3.191v.018l8.088 10.967h4.74l-5.844-8.07zm-84.603 8.162v-20.81h4.257v16.966h9.109v3.844H45.739zm30.554 0l-1.16-2.712h-8.506l-1.168 2.712h-4.573l9.294-21.19h1.42l9.266 21.19h-4.573zm-2.644-6.212l-2.773-7.03-2.774 7.03h5.547zm8.441 1.987l2.931-2.21c1.466 2.015 3.172 3.027 5.102 3.027.927 0 1.651-.204 2.17-.613.53-.409.789-.975.789-1.69 0-.585-.176-1.05-.538-1.374-.353-.325-1.058-.734-2.115-1.217l-2.236-1.012c-3.357-1.495-5.036-3.491-5.036-5.99 0-1.763.65-3.193 1.957-4.27 1.299-1.087 2.95-1.626 4.944-1.626 1.558 0 2.922.353 4.1 1.059a7.544 7.544 0 012.773 2.888l-2.894 2.238c-1.067-1.597-2.393-2.396-3.97-2.396-.751 0-1.373.177-1.855.539-.482.362-.723.854-.723 1.485 0 .53.176.947.519 1.282.343.325.983.696 1.901 1.123l2.366 1.04c1.78.799 3.089 1.662 3.905 2.6.816.938 1.224 2.099 1.224 3.483 0 1.875-.686 3.38-2.05 4.522-1.363 1.142-3.107 1.718-5.231 1.718-1.744 0-3.312-.41-4.712-1.226a9.208 9.208 0 01-3.32-3.38z" fill="#000"/></g><defs><clipPath id="clip0"><path fill="#fff" d="M0 0h198v52H0z"/></clipPath></defs></svg>