<svg width="200" height="151" viewBox="0 0 200 151" fill="none" xmlns="http://www.w3.org/2000/svg">
<path d="M74.6681 -15.1734L101.26 23.8692L90.208 29.3125L74.6681 -15.1734ZM104.796 22.1211L78.4687 -16.5284L116.511 16.3495L104.796 22.1211ZM86.6711 31.0616L71.2199 38.6914L71.2199 -13.1404L86.6711 31.0616ZM79.376 -20.9016L135.567 6.94933L120.315 14.4691L79.376 -20.9016ZM137.714 -42.3241L137.714 -29.5794L89.3256 -29.5794L137.714 -42.3241ZM137.714 -8.74693L137.714 4.28273L81.6995 -23.4803L137.714 -8.74693ZM137.714 -25.7103L137.714 -12.7695L88.5746 -25.7103L137.714 -25.7103ZM81.1251 -31.4375L137.714 -59.3754L137.714 -46.3244L81.1251 -31.4375Z" fill="white"/>
<path d="M142.441 48.1101V36.3495L163.728 25.1781L175.267 30.9053L142.441 48.1101ZM142.441 64.2438V52.5045L179.577 33.0271L191.094 38.7321L142.441 64.2438ZM142.441 31.9551V14.6199L159.44 23.0359L142.441 31.9551ZM195.404 40.8743L206.789 46.5146L142.441 78.2567V68.6373L195.404 40.8743Z" fill="white"/>
<path d="M183.709 3.48568L166.667 -5.34658L183.622 -13.7191L183.709 3.48568ZM162.336 -3.22572L181.345 6.63321L161.959 16.2739L142.441 6.58974L162.336 -3.22572ZM166.334 18.4382L183.753 9.78175L183.842 27.117L166.334 18.4382ZM187.69 9.91306L206.789 19.8155V38.5067L187.779 29.0843L187.69 9.91306ZM187.645 3.48568L187.535 -15.643L206.788 -25.1523V-6.04582L187.645 3.48568ZM189.923 6.69892L206.789 -1.69582V15.4211L189.923 6.69892Z" fill="white"/>
<path d="M149.98 96.7998C147.328 98.264 144.675 99.7504 142.442 100.975V86.7651L155.993 93.4765C154.113 94.5041 152.058 95.6631 149.98 96.7998ZM185.346 127.755L167.617 118.223L185.346 109.086V127.755ZM142.441 126.858V109.107L159.285 118.158L142.441 126.858ZM143.569 105.304L160.369 95.6631L161.319 96.1228L161.407 114.879L143.569 105.304ZM182.52 130.64L165.477 139.057L165.388 121.436L182.52 130.64ZM156.854 143.297L142.441 150.403V135.45L156.854 143.297ZM189.26 127.317V109.981L206.789 118.66L189.26 127.317ZM161.452 121.415L161.563 140.98L161.121 141.199L142.64 131.121L161.452 121.415ZM165.254 98.067L182.054 106.396L165.343 115.031L165.254 98.067Z" fill="white"/>
<path fill-rule="evenodd" clip-rule="evenodd" d="M71.2207 114.329V50.6926L135.568 82.4347L71.2207 114.329ZM119.587 82.5651L77.3882 60.4424V104.798L119.587 82.5651ZM81.3022 98.3277V66.8917L111.21 82.5658L81.3022 98.3277ZM98.1454 82.5001L87.4031 76.8608V88.1626L98.1454 82.5001Z" fill="white"/>
<path fill-rule="evenodd" clip-rule="evenodd" d="M9.15135 31.1032V61.2266L21.3754 67.654L0 78.2566V14.6199L20.911 24.9163L9.15135 31.1032ZM13.066 35.651V35.6505H13.0651L13.066 35.651ZM13.066 35.651V58.8877L25.6868 65.5334L34.9269 60.9429V47.6081L13.066 35.651ZM38.8589 58.9968V47.8041L52.3648 40.437L64.3456 46.3612L38.8589 58.9968ZM15.1416 32.3493L25.2215 27.0587L48.0777 38.3383L37.07 44.3282L15.1416 32.3493Z" fill="white"/>
</svg>
