<svg width="672" height="419" viewBox="0 0 672 419" fill="none" xmlns="http://www.w3.org/2000/svg">
<g opacity="0.5">
<path d="M548.52 361.329V338.831L589.241 317.46L611.314 328.416L548.52 361.329ZM548.52 392.193V369.736L619.56 332.475L641.593 343.389L548.52 392.193ZM548.52 330.425V297.262L581.038 313.362L548.52 330.425ZM649.838 347.487L671.616 358.277L548.52 419V400.598L649.838 347.487Z" fill="#E6F0FF"/>
<path d="M529.341 253.445L478.471 178.756L499.614 168.343L529.341 253.445ZM471.706 182.1L522.071 256.037L449.295 193.141L471.706 182.1ZM506.38 164.997L535.938 150.401V249.556L506.38 164.997ZM520.335 264.403L412.841 211.124L442.019 196.738L520.335 264.403ZM408.734 305.384V281.003H501.301L408.734 305.384ZM408.734 241.151V216.225L515.89 269.336L408.734 241.151ZM408.734 273.602V248.846L502.738 273.602H408.734ZM516.989 284.558L408.734 338.003V313.037L516.989 284.558Z" fill="#E6F0FF"/>
<path d="M142.84 93.4058L193.711 168.095L172.568 178.508L142.84 93.4058ZM200.475 164.751L150.111 90.8137L222.887 153.709L200.475 164.751ZM165.802 181.854L136.244 196.45L136.244 97.295L165.802 181.854ZM151.846 82.4478L259.34 135.727L230.163 150.112L151.846 82.4478ZM263.447 41.4663L263.447 65.8471L170.88 65.8471L263.447 41.4663ZM263.447 105.7L263.447 130.626L156.291 77.5147L263.447 105.7ZM263.447 73.2487L263.447 98.0045L169.443 73.2487L263.447 73.2487ZM155.192 62.2924L263.447 8.84709L263.447 33.8137L155.192 62.2924Z" fill="#E6F0FF"/>
<path d="M272.488 214.468V191.97L313.21 170.599L335.283 181.555L272.488 214.468ZM272.488 245.332V222.875L343.529 185.614L365.561 196.528L272.488 245.332ZM272.488 183.563V150.401L305.007 166.501L272.488 183.563ZM373.807 200.626L395.585 211.416L272.488 272.139V253.737L373.807 200.626Z" fill="#E6F0FF"/>
<path d="M351.434 129.101L318.833 112.205L351.266 96.1877L351.434 129.101ZM310.547 116.262L346.912 135.122L309.827 153.565L272.488 135.039L310.547 116.262ZM318.196 157.705L351.517 141.145L351.687 174.308L318.196 157.705ZM359.05 141.396L395.587 160.34V196.096L359.22 178.071L359.05 141.396ZM358.963 129.101L358.753 92.5073L395.583 74.3159V110.867L358.963 129.101ZM363.321 135.248L395.585 119.188V151.933L363.321 135.248Z" fill="#E6F0FF"/>
<path d="M286.909 307.612C281.836 310.413 276.761 313.256 272.49 315.599V288.416L298.412 301.254C294.817 303.22 290.885 305.437 286.909 307.612ZM354.564 366.829L320.65 348.595L354.564 331.115V366.829ZM272.488 365.113V331.156L304.711 348.47L272.488 365.113ZM274.645 323.88L306.783 305.437L308.6 306.317L308.77 342.197L274.645 323.88ZM349.159 372.348L316.556 388.45L316.386 354.742L349.159 372.348ZM300.059 396.562L272.488 410.155V381.551L300.059 396.562ZM362.053 365.992V332.828L395.587 349.43L362.053 365.992ZM308.855 354.702L309.067 392.13L308.222 392.548L272.869 373.268L308.855 354.702ZM316.129 310.036L348.267 325.97L316.299 342.489L316.129 310.036Z" fill="#E6F0FF"/>
<path fill-rule="evenodd" clip-rule="evenodd" d="M136.246 341.145V219.408L259.343 280.131L136.246 341.145ZM228.771 280.38L148.045 238.059V322.912L228.771 280.38ZM155.531 310.534V250.397L212.745 280.382L155.531 310.534ZM187.752 280.256L167.202 269.468V291.088L187.752 280.256Z" fill="#E6F0FF"/>
<path fill-rule="evenodd" clip-rule="evenodd" d="M408.734 196.053V74.3154L531.831 135.038L408.734 196.053ZM501.259 135.288L420.533 92.9669V177.819L501.259 135.288ZM428.02 165.442V105.305L485.234 135.289L428.02 165.442ZM460.241 135.164L439.691 124.376V145.996L460.241 135.164Z" fill="#E6F0FF"/>
<path fill-rule="evenodd" clip-rule="evenodd" d="M566.025 31.5328V89.1592L589.41 101.455L548.519 121.738V0L588.522 19.6971L566.025 31.5328ZM573.513 40.2325V40.2316H573.511L573.513 40.2325ZM573.513 40.2325V84.6846L597.657 97.3979L615.333 88.6163V63.1066L573.513 40.2325ZM622.855 84.8934V63.4816L648.692 49.3883L671.611 60.7214L622.855 84.8934ZM577.484 33.9165L596.767 23.7954L640.491 45.3734L619.433 56.8322L577.484 33.9165Z" fill="#E6F0FF"/>
<path fill-rule="evenodd" clip-rule="evenodd" d="M17.5066 181.933V239.56L40.8913 251.855L0 272.138V150.4L40.003 170.097L17.5066 181.933ZM24.9947 190.633V190.632H24.9929L24.9947 190.633ZM24.9947 190.633V235.085L49.1384 247.798L66.8149 239.016V213.507L24.9947 190.633ZM74.3367 235.294V213.882L100.174 199.789L123.093 211.122L74.3367 235.294ZM28.9653 184.317L48.2484 174.196L91.9725 195.774L70.9146 207.232L28.9653 184.317Z" fill="#E6F0FF"/>
</g>
</svg>
