<svg width="32" height="32" viewBox="0 0 32 32" fill="none" xmlns="http://www.w3.org/2000/svg">
<path fill-rule="evenodd" clip-rule="evenodd" d="M6.1005 25.8995C8.72601 28.525 12.287 30 16 30C19.713 30 23.274 28.525 25.8995 25.8995C28.525 23.274 30 19.713 30 16C30 12.287 28.525 8.72601 25.8995 6.1005C23.274 3.475 19.713 2 16 2C12.287 2 8.72601 3.475 6.1005 6.1005C3.475 8.72601 2 12.287 2 16C2 19.713 3.475 23.274 6.1005 25.8995ZM27.3137 27.3137C24.3131 30.3143 20.2435 32 16 32C11.7565 32 7.68687 30.3143 4.68629 27.3137C1.68571 24.3131 0 20.2435 0 16C0 11.7565 1.68571 7.68687 4.68629 4.68629C7.68687 1.68571 11.7565 0 16 0C20.2435 0 24.3131 1.68571 27.3137 4.68629C30.3143 7.68687 32 11.7565 32 16C32 20.2435 30.3143 24.3131 27.3137 27.3137ZM14.1561 21.2349C14.0556 21.4775 14.0039 21.7376 14.0039 22.0002C14.0039 22.5307 14.2146 23.0394 14.5897 23.4144C14.9648 23.7895 15.4735 24.0002 16.0039 24.0002C16.5343 24.0002 17.043 23.7895 17.4181 23.4144C17.7932 23.0394 18.0039 22.5307 18.0039 22.0002C18.0039 21.7376 17.9522 21.4775 17.8517 21.2349C17.7512 20.9922 17.6038 20.7717 17.4181 20.586C17.2324 20.4003 17.0119 20.253 16.7693 20.1525C16.5266 20.052 16.2666 20.0002 16.0039 20.0002C15.7413 20.0002 15.4812 20.052 15.2385 20.1525C14.9959 20.253 14.7754 20.4003 14.5897 20.586C14.404 20.7717 14.2567 20.9922 14.1561 21.2349ZM14.2783 9.24149C14.2 9.48282 14.1733 9.73792 14.1999 9.99023L14.8999 17.0042C14.9234 17.2798 15.0495 17.5365 15.2532 17.7235C15.4569 17.9106 15.7234 18.0143 15.9999 18.0143C16.2765 18.0143 16.5429 17.9106 16.7466 17.7235C16.9503 17.5365 17.0764 17.2798 17.0999 17.0042L17.7999 9.99023C17.8265 9.73792 17.7998 9.48282 17.7215 9.24149C17.6432 9.00016 17.515 8.778 17.3453 8.58941C17.1755 8.40082 16.9681 8.25002 16.7363 8.1468C16.5045 8.04358 16.2536 7.99023 15.9999 7.99023C15.7462 7.99023 15.4953 8.04358 15.2635 8.1468C15.0318 8.25002 14.8243 8.40082 14.6545 8.58941C14.4848 8.778 14.3566 9.00016 14.2783 9.24149Z" fill="#0094DA"/>
</svg>
